<?xml version="1.0" standalone="no"?>
<!DOCTYPE svg PUBLIC "-//W3C//DTD SVG 20010904//EN"
 "http://www.w3.org/TR/2001/REC-SVG-20010904/DTD/svg10.dtd">
<svg version="1.0" xmlns="http://www.w3.org/2000/svg"
 width="511.000000pt" height="554.000000pt" viewBox="0 0 511.000000 554.000000"
 preserveAspectRatio="xMidYMid meet">

<g transform="translate(0.000000,554.000000) scale(0.100000,-0.100000)"
fill="#000000" stroke="none">
<path d="M2425 5529 c-44 -5 -123 -14 -175 -20 -349 -40 -727 -176 -948 -341
-121 -90 -287 -255 -375 -373 -172 -232 -322 -560 -436 -956 -44 -153 -106
-397 -131 -514 -38 -178 -78 -406 -95 -540 -4 -27 -25 -88 -47 -135 -51 -107
-117 -302 -143 -420 -2 -8 -13 -53 -24 -100 -11 -47 -22 -105 -26 -130 -3 -25
-10 -76 -17 -115 -13 -86 -4 -275 18 -365 20 -77 66 -174 103 -213 33 -36 91
-67 128 -68 25 0 33 -10 77 -97 111 -219 269 -433 426 -575 206 -186 643 -368
1150 -479 52 -11 118 -24 145 -28 220 -33 289 -41 425 -49 150 -9 251 -5 471
19 287 31 398 52 704 137 92 26 271 103 360 155 189 111 441 314 522 419 67
88 162 246 229 380 l63 126 42 7 c65 10 147 100 187 203 105 276 52 655 -172
1225 -28 69 -46 133 -46 156 0 22 -4 62 -10 89 -5 26 -19 104 -31 173 -38 220
-154 664 -218 835 -70 185 -112 287 -171 410 -217 457 -494 776 -841 971 -147
82 -388 161 -594 195 -139 23 -428 32 -550 18z m1065 -539 c0 -5 -7 -10 -15
-10 -8 0 -15 5 -15 10 0 6 7 10 15 10 8 0 15 -4 15 -10z m-824 -196 c190 -163
281 -242 358 -313 45 -40 125 -110 179 -154 l99 -81 -89 -86 c-257 -249 -636
-600 -648 -600 -5 0 -160 142 -350 321 -33 31 -114 103 -179 160 -66 57 -135
118 -155 135 l-35 31 35 30 c19 17 55 48 80 69 25 22 121 106 213 188 l167
148 44 -38 c283 -250 395 -350 395 -355 0 -3 -47 -54 -103 -114 -117 -124 -95
-120 -198 -36 -30 24 -55 47 -57 52 -2 5 13 29 32 53 l37 44 -71 52 c-70 52
-71 52 -93 34 -43 -36 -127 -118 -127 -125 0 -7 347 -323 358 -326 4 -1 92 80
196 181 l189 183 -109 94 c-59 52 -145 128 -190 169 -45 41 -113 102 -152 135
-39 33 -71 63 -71 67 -1 10 139 158 148 158 4 0 47 -34 97 -76z m1854 -1224
c0 -5 -2 -10 -4 -10 -3 0 -8 5 -11 10 -3 6 -1 10 4 10 6 0 11 -4 11 -10z
m-680 -284 c0 -3 -4 -8 -10 -11 -5 -3 -10 -1 -10 4 0 6 5 11 10 11 6 0 10 -2
10 -4z m-2373 -193 c19 -9 48 -34 64 -56 55 -75 32 -211 -44 -257 -69 -42
-170 -34 -219 17 -117 122 -43 311 120 313 24 0 60 -8 79 -17z m2422 -21 c102
-82 87 -241 -27 -299 -81 -41 -180 -16 -228 57 -47 71 -42 155 14 222 38 45
77 59 146 54 46 -3 66 -11 95 -34z m-664 -142 c3 -5 1 -10 -4 -10 -6 0 -11 5
-11 10 0 6 2 10 4 10 3 0 8 -4 11 -10z m865 -470 c0 -5 -4 -10 -9 -10 -6 0
-13 5 -16 10 -3 6 1 10 9 10 9 0 16 -4 16 -10z m-1555 -25 c118 0 201 5 242
14 52 11 66 11 78 1 25 -21 14 -62 -23 -86 -96 -65 -407 -71 -532 -11 -50 24
-63 56 -35 87 14 15 21 16 53 7 21 -6 116 -11 217 -12z m-1845 -506 c-7 -11
-14 -18 -17 -15 -3 3 0 12 7 21 18 21 23 19 10 -6z m3400 -579 c0 -5 -2 -10
-4 -10 -3 0 -8 5 -11 10 -3 6 -1 10 4 10 6 0 11 -4 11 -10z"/>
</g>
</svg>
